# xmcd
#
# Track frame offsets: 
#        150
#        4799
#        17410
#        31127
#        49197
#        67908
#        82824
#        98227
#        113169
#        126881
#
# Disc length: 1921 seconds
#
# Revision: 0
# Processed by: cddbd v1.5.2PL0 Copyright (c) Steve Scherf et al.
# Submitted via: ExactAudioCopy v0.99pb5
#
DISCID=6c077f0a
DTITLE=Gomie - You Are Here
DYEAR=2010
DGENRE=Country
TTITLE0=Wheatfield Soul
TTITLE1=Barber Shop
TTITLE2=Never Gone
TTITLE3=Everything Will be Alright
TTITLE4=Fallout
TTITLE5=Marjorie
TTITLE6=This is My Life
TTITLE7=New Melody
TTITLE8=Gatlinburg
TTITLE9=Until the Morning Light Shines
EXTD=
EXTT0=
EXTT1=
EXTT2=
EXTT3=
EXTT4=
EXTT5=
EXTT6=
EXTT7=
EXTT8=
EXTT9=
PLAYORDER=
